<?xml version="1.0" encoding="utf-8"?>
<!-- Generator: Adobe Illustrator 25.1.0, SVG Export Plug-In . SVG Version: 6.00 Build 0)  -->
<svg version="1.1" id="Layer_1" xmlns="http://www.w3.org/2000/svg" xmlns:xlink="http://www.w3.org/1999/xlink" x="0px" y="0px"
	 viewBox="0 0 501.39 88.89" style="enable-background:new 0 0 501.39 88.89;" xml:space="preserve">
<style type="text/css">
	.st0{fill:#003478;}
	.st1{fill:#E6003F;}
	.st2{fill:url(#SVGID_1_);}
	.st3{fill:url(#SVGID_2_);}
	.st4{fill:url(#SVGID_3_);}
	.st5{fill:url(#SVGID_4_);}
	.st6{fill:url(#SVGID_5_);}
	.st7{fill:url(#SVGID_6_);}
	.st8{fill:url(#SVGID_7_);}
	.st9{fill:url(#SVGID_8_);}
</style>
<g>
	<g>
		<path class="st0" d="M141.59,14.25h-35.49c-20.61,0-29.87,13.79-29.87,23.62c0,9.85,7.93,17.43,28.4,17.43l4.18,0.02
			c4.51,0,7.02,0.63,7.09,3.65c0.03,1.66-1.1,3.6-2.32,4.55c-2.75,2.13-5.18,2.35-18.13,2.35h-63.9l12.34-51.56H22.54
			c-1.43,0-1.96,0.41-2.38,2.11L8.45,64.75c-2.2,9.61,2.75,18.4,13.81,18.4h29.31c7.42,0,17.36-8.11,21.39-15.6
			c0.22-0.42,0.36-0.68,0.53-1.02c0,0,0.09-0.11,0.11,0.04v0.01c-0.64,2.69-2.89,12.21-3.25,13.76c-0.47,2.02,0.58,2.79,1.55,2.79
			h31.53c26.74,0,37.18-12.73,38.1-28.01c0.51-8.59-4.92-14.14-20.28-14.14h-11.8c-4.2,0-8.5-1.38-8.5-4.78
			c0-3.41,4.68-6.37,11-6.37h28.71c0,0,2.51-10.06,3.01-12.16C144.31,15.02,143.52,14.25,141.59,14.25"/>
		<path class="st1" d="M150.5,20.83l29.39-15.09h-57.13c0,0,24.74,5.04,26.94,5.48c2.21,0.45,2.71,1.63,2.33,3.19
			C151.69,15.89,150.5,20.83,150.5,20.83"/>
	</g>
	
		<linearGradient id="SVGID_1_" gradientUnits="userSpaceOnUse" x1="320.5664" y1="82.3758" x2="320.5664" y2="48.6789" gradientTransform="matrix(1 0 -0.0208 1 -48.5198 0)">
		<stop  offset="0" style="stop-color:#0075BE"/>
		<stop  offset="1" style="stop-color:#003478"/>
	</linearGradient>
	<path class="st2" d="M292.58,56.74l1.05-4.27c0.63-2.43-0.93-3.61-2.51-3.61h-33.85c-1.86,0-2.3,0.47-2.69,2.08l-5.85,24.3
		l-0.92,3.81c-0.59,2.17-0.06,4.07,2.73,4.07h32.89c2.63,0,3.85-1.66,4.39-3.62l1.03-4.26h-30.65l1.35-5.61h21.49
		c2.63,0,3.85-1.66,4.39-3.62l1.03-4.26h-25.01l1.21-5.01H292.58z"/>
	
		<linearGradient id="SVGID_2_" gradientUnits="userSpaceOnUse" x1="275.0136" y1="82.3758" x2="275.0136" y2="48.6789" gradientTransform="matrix(1 0 -0.0208 1 -48.5198 0)">
		<stop  offset="0" style="stop-color:#0075BE"/>
		<stop  offset="1" style="stop-color:#003478"/>
	</linearGradient>
	<path class="st3" d="M221.38,48.86h-7.27c-1.85,0-2.3,0.47-2.69,2.08l-6.77,28.12c-0.59,2.17-0.06,4.07,2.73,4.07h32.51
		c2.63,0,3.85-1.66,4.39-3.62l1.03-4.26h-30.28L221.38,48.86z"/>
	
		<linearGradient id="SVGID_3_" gradientUnits="userSpaceOnUse" x1="520.9765" y1="82.3758" x2="520.9765" y2="48.6789" gradientTransform="matrix(1 0 -0.0208 1 -48.5198 0)">
		<stop  offset="0" style="stop-color:#0075BE"/>
		<stop  offset="1" style="stop-color:#003478"/>
	</linearGradient>
	<path class="st4" d="M490.79,48.86h-22.92c-9.2,0-14.33,3.59-16.49,12.19l-2.01,8.32c-1.62,7.29,0.33,13.75,10.39,13.75h23.71
		c2.63,0,3.85-1.66,4.38-3.62l1.03-4.26h-25.58c-4.41,0-5.27-2.15-4.58-5.43l1.67-7.09c1.15-4.54,5.04-5.99,8.26-5.99h23.61
		l1.05-4.27C493.93,50.05,492.37,48.86,490.79,48.86z"/>
	
		<linearGradient id="SVGID_4_" gradientUnits="userSpaceOnUse" x1="364.8698" y1="82.3758" x2="364.8698" y2="48.6789" gradientTransform="matrix(1 0 -0.0208 1 -48.5198 0)">
		<stop  offset="0" style="stop-color:#0075BE"/>
		<stop  offset="1" style="stop-color:#003478"/>
	</linearGradient>
	<path class="st5" d="M334.69,48.86h-22.92c-9.2,0-14.33,3.59-16.49,12.19l-2.01,8.32c-1.62,7.29,0.33,13.75,10.39,13.75h23.71
		c2.63,0,3.85-1.66,4.38-3.62l1.03-4.26H307.2c-4.41,0-5.27-2.15-4.58-5.43l1.67-7.09c1.15-4.54,5.04-5.99,8.26-5.99h23.6l1.05-4.27
		C337.83,50.05,336.27,48.86,334.69,48.86z"/>
	
		<linearGradient id="SVGID_5_" gradientUnits="userSpaceOnUse" x1="489.4929" y1="82.3758" x2="489.4929" y2="48.6789" gradientTransform="matrix(1 0 -0.0208 1 -48.5198 0)">
		<stop  offset="0" style="stop-color:#0075BE"/>
		<stop  offset="1" style="stop-color:#003478"/>
	</linearGradient>
	<path class="st6" d="M445.57,48.86h-7.08l-7.3,30.2c-0.59,2.17-0.06,4.07,2.73,4.07h6.78l7.38-30.65
		C448.71,50.05,447.15,48.86,445.57,48.86z"/>
	
		<linearGradient id="SVGID_6_" gradientUnits="userSpaceOnUse" x1="412.0535" y1="82.3758" x2="412.0535" y2="48.6789" gradientTransform="matrix(1 0 -0.0208 1 -48.5198 0)">
		<stop  offset="0" style="stop-color:#0075BE"/>
		<stop  offset="1" style="stop-color:#003478"/>
	</linearGradient>
	<path class="st7" d="M385.25,52.47c0.63-2.43-0.93-3.61-2.51-3.61h-39.21c-1.85,0-2.3,0.47-2.69,2.08l-1.42,5.8h17.27l-5.38,22.32
		c-0.59,2.17-0.06,4.07,2.73,4.07h6.32l6.35-26.38h17.5L385.25,52.47z"/>
	
		<linearGradient id="SVGID_7_" gradientUnits="userSpaceOnUse" x1="456.4107" y1="82.3758" x2="456.4107" y2="48.6789" gradientTransform="matrix(1 0 -0.0208 1 -48.5198 0)">
		<stop  offset="0" style="stop-color:#0075BE"/>
		<stop  offset="1" style="stop-color:#003478"/>
	</linearGradient>
	<path class="st8" d="M418.73,48.86h-27.17c-1.85,0-2.3,0.47-2.69,2.08l-6.8,28.12c-0.59,2.17-0.06,4.07,2.73,4.07h5.76l6.35-26.38
		h20.02c6.58,0,5.13,9.14-2.61,9.14H399.9c-1.43,0-1.97,1.46-1.01,2.5l4.94,5.38l6.14,6.68c1.93,2.17,2.44,2.69,5.23,2.69h9.64
		l-8.98-9.43C433.42,72.44,437.45,48.86,418.73,48.86z"/>
	<linearGradient id="SVGID_8_" gradientUnits="userSpaceOnUse" x1="179.737" y1="82.3804" x2="179.737" y2="47.9837">
		<stop  offset="0" style="stop-color:#0075BE"/>
		<stop  offset="1" style="stop-color:#003478"/>
	</linearGradient>
	<path class="st9" d="M205.5,39.95l-42.68,0c-2.34,0-2.9,0.59-3.39,2.62l-7.38,30.64l-1.17,4.8c-0.75,2.74-0.07,5.13,3.44,5.13
		l41.46,0c3.32,0,4.85-2.1,5.53-4.56l1.02-4.18h-39.87l1.99-8.27l28.31,0c3.32,0,4.85-2.1,5.53-4.56l1.3-5.37h-32.75l1.81-7.51
		h38.97l1.03-4.19C209.46,41.44,207.49,39.95,205.5,39.95z"/>
</g>
</svg>
